<?xml version="1.0" encoding="utf-8"?>
<!-- Generator: Adobe Illustrator 19.0.0, SVG Export Plug-In . SVG Version: 6.00 Build 0)  -->
<svg version="1.1" id="Layer_1" xmlns="http://www.w3.org/2000/svg" xmlns:xlink="http://www.w3.org/1999/xlink" x="0px" y="0px"
	 viewBox="0 0 96 96" style="enable-background:new 0 0 96 96;" xml:space="preserve">
<style type="text/css">
	.st0{fill:#333333;}
</style>
<g id="XMLID_1_">
	<path id="XMLID_6_" class="st0" d="M72.4,35.8h-4.1v4.1c0,6.3-5.9,12.2-12.2,12.2H37.5l-5.7,5.7v2.4c0,4.1,4.1,8.1,8.1,8.1h20.3
		l12.2,12.2V68.3c4.1,0,8.1-4.1,8.1-8.1V43.9C80.5,39.9,76.4,35.8,72.4,35.8z"/>
	<path id="XMLID_7_" class="st0" d="M35.8,48h20.3c4.1,0,8.1-4.1,8.1-8.1V23.6c0-4.1-4.1-8.1-8.1-8.1H23.6c-4.1,0-8.1,4.1-8.1,8.1
		v16.3c0,4.1,4.1,8.1,8.1,8.1v12.2L35.8,48z"/>
</g>
</svg>
